<?xml version="1.0" standalone="no"?>
<!DOCTYPE svg PUBLIC "-//W3C//DTD SVG 20010904//EN"
 "http://www.w3.org/TR/2001/REC-SVG-20010904/DTD/svg10.dtd">
<svg version="1.0" xmlns="http://www.w3.org/2000/svg"
 width="1280.000000pt" height="640.000000pt" viewBox="0 0 1280.000000 640.000000"
 preserveAspectRatio="xMidYMid meet">
<metadata>
Created by potrace 1.15, written by Peter Selinger 2001-2017
</metadata>
<g transform="translate(0.000000,640.000000) scale(0.100000,-0.100000)"
fill="#e91e63" stroke="none">
<path d="M11586 5794 c-243 -28 -547 -94 -735 -159 -180 -63 -866 -388 -2468
-1169 -416 -202 -418 -203 -516 -190 l-46 7 -21 62 c-34 102 -77 163 -150 213
l-65 45 -92 -7 c-122 -8 -246 -45 -368 -110 -55 -29 -149 -67 -210 -85 l-110
-33 -750 66 c-412 36 -755 66 -761 66 -6 0 -19 33 -29 73 -35 146 -99 238
-199 286 -42 21 -56 23 -124 17 -137 -13 -209 -35 -359 -109 -69 -35 -174 -74
-288 -109 l-180 -55 -1580 139 c-1402 123 -1595 138 -1710 132 -170 -8 -261
-26 -355 -70 l-77 -36 -168 27 c-152 23 -226 26 -224 7 0 -4 29 -31 65 -61
l65 -54 -6 -66 c-3 -36 -8 -92 -11 -123 l-6 -58 30 0 c27 0 36 10 90 93 l61
94 753 -177 c1457 -343 1789 -420 1809 -420 10 0 60 21 110 46 50 25 93 44 95
42 2 -2 -55 -48 -127 -102 -99 -74 -180 -123 -335 -202 l-204 -106 34 -61 c19
-34 231 -413 470 -841 l435 -779 -77 7 c-87 7 -465 51 -1092 127 -617 74 -764
76 -1050 12 -121 -26 -371 -105 -455 -143 l-50 -23 50 -12 c28 -7 230 -59 450
-115 542 -139 1176 -301 1545 -395 168 -43 307 -80 310 -82 3 -3 -3 -10 -13
-18 -14 -10 -19 -35 -25 -144 l-7 -131 55 0 c30 0 163 7 295 15 132 8 274 15
316 15 l76 0 474 -265 474 -264 65 36 c238 133 329 206 350 283 14 51 17 39
-70 278 -29 79 -51 144 -49 146 2 1 56 12 119 24 842 154 921 173 1240 310
l165 71 290 46 c286 46 575 101 708 134 61 16 67 16 61 2 -4 -9 -9 -39 -12
-67 -3 -46 0 -55 25 -83 40 -45 87 -50 136 -17 l37 25 0 -22 c0 -39 36 -85 76
-96 71 -20 133 27 142 105 l5 47 16 -34 c20 -43 76 -75 114 -65 15 3 41 19 58
34 26 23 33 38 37 80 5 54 22 83 22 38 0 -38 18 -71 50 -89 45 -27 85 -22 126
16 33 30 36 39 41 100 4 48 2 71 -8 83 -12 15 -12 16 6 11 11 -3 37 -9 58 -13
42 -7 44 -10 20 -36 -15 -17 -14 -21 12 -71 15 -28 29 -53 31 -55 1 -2 19 5
41 16 35 18 41 19 67 5 28 -14 62 -14 99 2 12 5 17 3 17 -8 0 -9 11 -28 24
-44 13 -15 31 -44 41 -63 10 -19 19 -37 21 -39 2 -2 35 15 73 38 70 42 71 42
103 25 57 -29 60 -33 39 -63 -10 -14 -43 -73 -74 -131 l-56 -105 23 -28 23
-28 94 56 c52 32 122 77 157 101 l63 44 45 -30 44 -31 -24 -32 c-13 -18 -47
-76 -76 -129 -45 -85 -50 -99 -38 -117 7 -12 17 -21 23 -21 5 0 71 41 145 90
74 49 139 90 143 90 5 0 29 -14 55 -32 26 -17 48 -32 49 -33 2 -1 -26 -58 -62
-127 -56 -108 -63 -127 -52 -143 13 -16 19 -14 98 35 46 28 128 83 181 121
l97 69 304 -246 305 -246 7 -112 c4 -61 9 -114 11 -118 2 -3 18 -1 34 5 26 10
33 22 52 82 19 60 31 79 83 131 34 33 84 71 111 83 136 63 163 80 209 127 86
89 87 93 54 209 -16 55 -29 103 -29 107 0 3 33 11 73 18 167 27 425 118 538
191 89 58 246 184 266 215 23 36 30 103 22 204 -11 139 -62 245 -149 314 -61
49 -98 58 -185 45 -126 -19 -188 -39 -320 -104 -82 -41 -190 -84 -293 -116
-90 -28 -165 -49 -166 -47 -1 1 -7 20 -13 40 l-11 37 37 7 c134 22 339 89 476
155 89 43 271 175 327 237 42 46 55 111 44 210 -21 181 -100 309 -222 364 -40
17 -52 18 -122 8 -127 -18 -216 -47 -340 -108 -127 -63 -396 -152 -412 -136
-9 9 -104 728 -98 744 2 4 62 55 133 112 107 85 153 115 255 163 230 107 783
382 984 489 109 59 201 104 205 101 3 -3 -1 -16 -9 -28 -7 -12 -14 -46 -16
-75 -2 -44 -7 -56 -29 -74 -62 -49 -68 -137 -12 -184 26 -22 38 -25 71 -21 32
5 45 1 69 -19 65 -55 155 -11 167 82 4 31 1 59 -6 75 -15 31 -63 53 -99 47
-25 -5 -25 -4 -25 62 l0 68 56 51 56 51 -46 0 c-42 0 -46 2 -46 24 0 20 21 37
126 101 246 151 341 237 422 378 78 135 108 271 83 365 -23 84 -111 150 -281
210 -47 17 -114 46 -150 65 -86 47 -252 117 -315 133 -64 18 -299 16 -459 -2z
m489 -1462 c-7 -8 -35 19 -35 33 0 25 25 22 32 -4 4 -14 5 -27 3 -29z m-8297
-313 c50 -12 92 -25 92 -30 0 -12 2 -12 -118 14 -57 13 -100 26 -96 30 11 10
20 9 122 -14z m172 -49 c0 -13 -11 -13 -30 0 -12 8 -11 10 8 10 12 0 22 -4 22
-10z m623 -130 c214 -48 213 -48 201 -60 -5 -5 -70 6 -164 30 -85 22 -160 40
-166 40 -12 0 -344 -299 -344 -310 0 -4 35 -17 78 -29 42 -12 107 -31 144 -42
l66 -19 -85 -125 c-61 -91 -82 -131 -78 -145 4 -11 4 -20 1 -20 -6 0 -454 325
-474 344 -10 10 -2 21 43 54 l56 42 103 -27 103 -27 30 25 c116 98 312 284
306 290 -4 4 -19 9 -33 12 -24 4 -24 4 3 6 16 0 111 -17 210 -39z m772 -175
c143 -32 264 -62 269 -66 4 -4 0 -12 -10 -17 -29 -15 -570 118 -552 136 7 7
17 11 23 9 5 -2 127 -30 270 -62z m-1790 19 c43 -10 47 -14 30 -31 -14 -14
-20 -13 -55 11 -42 28 -51 41 -22 32 9 -3 31 -8 47 -12z m2395 -158 c30 -7
105 -38 165 -68 96 -49 107 -57 85 -63 -19 -4 -50 5 -113 34 l-88 40 -207
-171 c-114 -94 -211 -175 -217 -180 -6 -6 -5 -12 4 -17 9 -6 -109 -70 -364
-199 l-377 -191 -298 217 c-265 192 -296 218 -277 226 98 42 194 93 261 138
43 29 89 59 100 67 19 12 51 5 301 -69 154 -46 281 -85 283 -86 2 -1 -4 -14
-13 -28 -13 -19 -16 -39 -12 -72 2 -25 7 -48 10 -51 7 -6 96 27 171 65 49 24
50 24 112 7 l62 -17 199 173 c109 95 204 178 212 185 11 10 6 14 -30 24 -73
18 -73 18 -59 35 15 18 20 18 90 1z m2809 -1102 c2 -2 2 -6 -1 -9 -7 -8 -98 7
-98 15 0 7 90 1 99 -6z m396 -174 c3 -5 -1 -10 -10 -10 -9 0 -13 5 -10 10 3 6
8 10 10 10 2 0 7 -4 10 -10z m-1187 -180 c-12 -16 -23 -30 -26 -30 -7 0 11 45
22 52 24 16 26 7 4 -22z m1376 1 c12 -13 14 -21 6 -26 -13 -8 -52 24 -44 36 8
14 19 11 38 -10z m-1126 -35 c-2 0 -15 -11 -29 -24 l-26 -22 5 28 c3 24 8 28
28 24 14 -2 24 -5 22 -6z m-494 -28 c-10 -20 -14 -45 -11 -69 3 -26 0 -42 -9
-50 -12 -9 -14 -5 -14 27 0 27 -7 46 -26 65 l-26 28 48 15 c27 8 50 15 52 15
1 1 -5 -13 -14 -31z m1865 -166 c3 -1 0 -7 -5 -12 -14 -14 -75 37 -67 56 5 12
11 10 37 -13 17 -15 33 -29 35 -31z m206 -192 c22 -21 36 -42 32 -46 -9 -9
-99 65 -92 77 10 15 18 10 60 -31z"/>
</g>
</svg>
